<svg xmlns="http://www.w3.org/2000/svg" width="33.317" height="27.08" viewBox="0 0 33.317 27.08">
  <path d="M516.222,490.494a13.638,13.638,0,0,1-3.926,1.076,6.842,6.842,0,0,0,3.009-3.781,13.662,13.662,0,0,1-4.341,1.659,6.84,6.84,0,0,0-11.652,6.233,19.4,19.4,0,0,1-14.087-7.14,6.843,6.843,0,0,0,2.114,9.126,6.8,6.8,0,0,1-3.094-.856,6.839,6.839,0,0,0,5.482,6.788,6.838,6.838,0,0,1-3.087.117,6.839,6.839,0,0,0,6.386,4.746,13.739,13.739,0,0,1-10.121,2.832,19.338,19.338,0,0,0,10.478,3.071c12.691,0,19.861-10.718,19.428-20.331a13.892,13.892,0,0,0,3.411-3.538Z" transform="translate(-482.905 -487.285)" fill="#fafdff"/>
</svg>
